<svg height="32" viewBox="0 0 32 32" width="32" xmlns="http://www.w3.org/2000/svg"><path d="m20.666 1.66688c0-.73638-.597-1.33334-1.3333-1.33334-.7364 0-1.3334.59696-1.3334 1.33334v1.3328h-8.0006v-1.3328c0-.73638-.5969-1.33334-1.3333-1.33334-.73638 0-1.33334.59696-1.33334 1.33334v1.3328h-2.66498c-2.20914 0-4 1.79086-4 4v5.33332 13.3333c0 2.2092 1.79086 4 4 4h18.66662c2.2092 0 4-1.7908 4-4v-13.3333-5.33332c0-2.20914-1.7908-4-4-4h-2.6677zm4.0011 9.33282v-4.00002c0-.73638-.597-1.33333-1.3334-1.33333h-2.6677v1.33386c0 .73638-.597 1.33333-1.3333 1.33333-.7364 0-1.3334-.59695-1.3334-1.33333v-1.33386h-8.0006v1.33386c0 .73638-.5969 1.33333-1.3333 1.33333-.73638 0-1.33334-.59695-1.33334-1.33333v-1.33386h-2.66498c-.73638 0-1.33333.59695-1.33333 1.33333v4.00002zm-21.33335 2.6666h21.33335v12c0 .7364-.597 1.3334-1.3334 1.3334h-18.66662c-.73638 0-1.33333-.597-1.33333-1.3334zm2.66561 3.1672c0-.2761.22386-.5.5-.5h1.66664c.2762 0 .5.2239.5.5v1.6667c0 .2762-.2238.5-.5.5h-1.66664c-.27614 0-.5-.2238-.5-.5zm7.16774-.5c-.2762 0-.5.2239-.5.5v1.6667c0 .2762.2238.5.5.5h1.6666c.2762 0 .5-.2238.5-.5v-1.6667c0-.2761-.2238-.5-.5-.5zm6.165.5c0-.2761.2238-.5.5-.5h1.6666c.2762 0 .5.2239.5.5v1.6667c0 .2762-.2238.5-.5.5h-1.6666c-.2762 0-.5-.2238-.5-.5zm-12.83274 4.8325c-.27614 0-.5.2239-.5.5v1.6667c0 .2761.22386.5.5.5h1.66664c.2762 0 .5-.2239.5-.5v-1.6667c0-.2761-.2238-.5-.5-.5zm6.16774.5c0-.2761.2238-.5.5-.5h1.6666c.2762 0 .5.2239.5.5v1.6667c0 .2761-.2238.5-.5.5h-1.6666c-.2762 0-.5-.2239-.5-.5zm7.165-.5c-.2762 0-.5.2239-.5.5v1.6667c0 .2761.2238.5.5.5h1.6666c.2762 0 .5-.2239.5-.5v-1.6667c0-.2761-.2238-.5-.5-.5z" fill="#64748B" fill-rule="evenodd" transform="translate(2 1)"/></svg>
