<?xml version="1.0" encoding="UTF-8"?>
<!DOCTYPE svg PUBLIC "-//W3C//DTD SVG 1.1//EN" "http://www.w3.org/Graphics/SVG/1.1/DTD/svg11.dtd">
<!-- Creator: CorelDRAW 2017 -->
<svg xmlns="http://www.w3.org/2000/svg" xml:space="preserve" width="1.72339in" height="1.45128in" version="1.1" style="shape-rendering:geometricPrecision; text-rendering:geometricPrecision; image-rendering:optimizeQuality; fill-rule:evenodd; clip-rule:evenodd"
viewBox="0 0 1082 911"
 xmlns:xlink="http://www.w3.org/1999/xlink">
 <defs>
  <style type="text/css">
   <![CDATA[
    .fil0 {fill:#010101}
   ]]>
  </style>
 </defs>
 <g id="Layer_x0020_1">
  <metadata id="CorelCorpID_0Corel-Layer"/>
  <path class="fil0" d="M71 819l-71 0 0 93 1082 0 0 -93 -64 0 0 -591 -370 0 0 -228 -577 0 0 819zm221 7l135 0 0 -214 -135 0 0 214zm178 -441l107 0 0 -114 -107 0 0 114zm-164 0l107 0 0 -114 -107 0 0 114zm434 434l85 0 0 -142 -85 0 0 142zm-271 -285l107 0 0 -107 -107 0 0 107zm-327 -306l107 0 0 -107 -107 0 0 107zm327 0l107 0 0 -107 -107 0 0 107zm-164 0l107 0 0 -107 -107 0 0 107zm-164 157l107 0 0 -114 -107 0 0 114zm0 149l107 0 0 -107 -107 0 0 107zm164 0l107 0 0 -107 -107 0 0 107zm441 -21l78 0 0 -78 -78 0 0 78zm0 107l78 0 0 -78 -78 0 0 78zm114 -107l78 0 0 -78 -78 0 0 78zm0 107l78 0 0 -78 -78 0 0 78zm0 -221l78 0 0 -71 -78 0 0 71zm-214 221l57 0 0 -78 -57 0 0 78zm100 -221l71 0 0 -71 -71 0 0 71zm-100 0l57 0 0 -71 -57 0 0 71zm0 114l57 0 0 -78 -57 0 0 78z"/>
 </g>
</svg>
