<svg xmlns="http://www.w3.org/2000/svg" xml:space="preserve" width="24" height="24" style="shape-rendering:geometricPrecision;text-rendering:geometricPrecision;image-rendering:optimizeQuality;fill-rule:evenodd;clip-rule:evenodd" viewBox="0 0 1929 1929"><defs><style>.fil0{fill:#7972ff}</style></defs><g id="Layer_x0020_1"><g id="_2503464836976"><path d="M532  1812c-51-28-91-51-136-85-122-91-228-220-293-358-82-177-87-278-87-467 0-130 66-314 134-426 29-47 106-152 145-187C413 182 557 87 718 48c282-69 569-24 802 151 158 119 220 205 306 378 169 340 78 768-177 1046a963 963 0 0 1-259 190c-253 126-606 136-858-1zm-346-812c0-142 13-248 76-373 30-59 106-174 154-217 66-60 139-112 219-152 199-99 458-93 655 2 28 13 37 14 61 30 43 29 70 42 115 80 301 254 361 702 143 1031-13 20-26 39-42 56-127 144-226 211-412 265-103 30-230 30-341 10-145-27-286-99-386-200-65-65-126-135-163-222-11-27-20-37-30-67-26-73-50-159-50-243z" class="fil0"/><path d="M1045 1326v-241c82 43 94 178 0 241zM876 629v221c-73-49-77-181 0-221zm0-195c-85 45-81 23-155 106-128 144-83 391 105 484 19 9 33 12 50 22v273c-124-65-105-130-202-130-43 0-72 42-72 91 0 56 135 160 184 187 32 17 58 26 89 41 0 39-1 64 15 89 31 48 99 59 139 7 21-27 15-46 15-89 84-44 72-16 155-99 144-145 91-417-107-502-18-8-32-10-48-17V617c74 6 127 111 195 111 69 0 127-86 44-161-12-10-21-16-33-26-48-39-142-100-207-106 0-45 6-62-14-90-40-60-107-42-137-2-18 24-18 52-18 93z" class="fil0"/></g></g></svg>